<?xml version="1.0" encoding="UTF-8" standalone="no"?>
<!-- Created with Inkscape (http://www.inkscape.org/) -->

<svg
   xmlns:dc="http://purl.org/dc/elements/1.1/"
   xmlns:cc="http://creativecommons.org/ns#"
   xmlns:rdf="http://www.w3.org/1999/02/22-rdf-syntax-ns#"
   xmlns:svg="http://www.w3.org/2000/svg"
   xmlns="http://www.w3.org/2000/svg"
   xmlns:sodipodi="http://sodipodi.sourceforge.net/DTD/sodipodi-0.dtd"
   xmlns:inkscape="http://www.inkscape.org/namespaces/inkscape"
   width="55.019165"
   height="34.157658"
   id="svg4044"
   version="1.1"
   inkscape:version="0.48.4 r9939"
   sodipodi:docname="iss green.pdf">
  <defs
     id="defs4046" />
  <sodipodi:namedview
     id="base"
     pagecolor="#ffffff"
     bordercolor="#666666"
     borderopacity="1.0"
     inkscape:pageopacity="0"
     inkscape:pageshadow="2"
     inkscape:zoom="1.979899"
     inkscape:cx="82.50958"
     inkscape:cy="91.364544"
     inkscape:document-units="px"
     inkscape:current-layer="layer1"
     showgrid="false"
     inkscape:window-width="839"
     inkscape:window-height="720"
     inkscape:window-x="766"
     inkscape:window-y="249"
     inkscape:window-maximized="0"
     fit-margin-top="0"
     fit-margin-left="0"
     fit-margin-right="0"
     fit-margin-bottom="0" />
  <metadata
     id="metadata4049">
    <rdf:RDF>
      <cc:Work
         rdf:about="">
        <dc:format>image/svg+xml</dc:format>
        <dc:type
           rdf:resource="http://purl.org/dc/dcmitype/StillImage" />
        <dc:title></dc:title>
      </cc:Work>
    </rdf:RDF>
  </metadata>
  <g
     inkscape:label="Layer 1"
     inkscape:groupmode="layer"
     id="layer1"
     transform="translate(-292.49042,-589.56907)">
    <path
       style="fill:#008000;fill-opacity:1;display:inline"
       d="m 314.94048,603.13303 4.14268,0.0812 0.21581,-0.0405 0.2158,-0.0405 0.0162,-0.17124 -0.005,-0.2034 0.11775,-0.13404 -0.0323,-0.12333 0.0918,-0.14112 -0.0475,-0.46255 c -0.0844,0.0837 -0.20706,0.11634 -0.37712,0.0858 -0.064,-0.136 -0.21072,-0.24445 -0.0343,-0.46061 0.12676,-0.15879 0.32148,-0.009 0.39665,0.0127 l 0.11809,-0.009 c -0.0925,-0.1502 -0.11028,-0.3163 -0.13614,-0.43489 l -0.0197,-0.38416 -1.59117,-0.004 0.003,-0.58757 1.55813,0.0248 c -0.0431,-0.11257 -0.0287,-0.28628 0.16192,-0.38879 l -0.3019,-0.30624 c 0.0866,0 0.0661,0.0107 0.15278,0.0107 l 0.23321,0.22891 0.27607,-0.0497 0.28703,-0.0142 c 0.29074,0.0694 0.38384,0.008 0.65273,0.19366 0.0854,0.10379 0.0917,0.13023 0.0274,0.29859 l 1.64806,0.008 -0.005,0.59251 -1.68265,0.015 -0.0142,0.3 -0.0395,0.2916 -0.0766,0.18077 0.13285,0.1945 c 0.005,0.17217 0.15732,0.25883 0.22724,0.36597 0.0504,0.15199 0.0423,0.21249 0.0548,0.33813 l 0.11786,0.006 0.0536,0.28407 0,0.11266 0.45493,0.10607 0.15188,0 0.0236,0.25652 1.17219,0.0155 0.63046,-0.002 0.0556,-0.225 4.75447,-0.0129 0.59447,2.67018 0.0603,0.44949 0.12849,-0.19448 0.12529,0.0293 -0.0793,0.11262 -0.0563,0.12826 c -0.0496,0.11293 -0.0363,0.16836 -0.0185,0.20904 l 0.0227,0.0353 0.23862,-0.008 0.23862,-0.0227 0.20297,0.0304 0.1954,-0.0681 0.0466,0.0755 0.0467,0.0755 2.4138,0.0313 0,0.15138 0,0.15139 0.11323,-0.0296 0.11323,-0.0296 0.0403,0.0652 0.0403,0.0652 1.30649,-0.0171 0.46071,0.0485 0.10714,0.0913 0.87215,0.0122 c -0.0284,-0.24956 -0.0114,-0.50435 -0.0129,-0.80774 l -0.73072,-0.0326 -0.18,-0.0704 c -0.59191,-0.0665 -1.20418,0.007 -1.79,-0.10809 0.0389,-5.62915 0.42777,-11.27927 0.44,-16.06871 l 2.45786,-0.0195 c 0.22689,-0.0496 0.19214,-0.0594 0.34714,-0.073 0.19258,-0.009 0.30922,-0.0931 0.58072,-0.0228 l 2.50785,-0.0232 -0.89416,16.60681 -0.95292,-0.0919 -1.25293,-0.006 0.035,0.64509 0.86143,0.0188 c 0.0583,-0.0178 -0.051,-0.17075 0.0193,-0.2964 l 0.16769,-0.0891 0.26649,-0.004 c 0.14657,-0.002 0.48924,0 0.76149,0.005 l 0.495,0.009 0,0.0583 0,0.0582 0.15644,-0.0393 0.15644,-0.0393 0.0399,0.0645 0.0399,0.0645 0.32868,0.0372 c 0.18077,0.0205 0.81467,0.0478 1.40867,0.0608 1.17001,0.0256 1.37251,0.0476 1.5014,0.16333 0.19109,0.17155 0.16831,0.18883 0.22607,0.16958 l 0.16669,-0.21719 -0.0533,-0.22223 -0.0375,-0.54945 -0.57335,-0.005 -1.95397,-0.0292 -0.0393,-0.24288 0.0354,-0.25395 c 0.0379,-0.27144 0.10065,-1.56745 0.42794,-8.83396 0.25206,-5.59613 0.26426,-5.85686 0.30643,-6.54643 l 0.0334,-0.54644 1.51004,-0.0456 c 0.83052,-0.0251 1.71254,-0.0539 1.96004,-0.0641 0.2475,-0.0102 0.9765,-0.025 1.62,-0.0328 l 1.17,-0.0142 0.0175,0.23479 c 0.0201,0.2691 -0.89682,15.07896 -0.98105,15.84611 l -0.0565,0.64867 -1.35,0 -1.35,0 -0.0184,0.35856 -0.0184,0.35856 -0.0696,0.043 -0.0696,0.043 0.0176,0.24344 0.0176,0.24343 -0.24781,0.0455 c -0.17815,0.0204 -0.15845,-0.10349 -0.30407,-0.1957 l 0.0245,0.41407 -0.11183,0.12618 0.16227,0.165 0.041,0.22561 0.23751,0.1321 0.039,0.22729 0.28147,0.0454 0.13531,0.15062 c 0.63784,0.0455 1.21238,0.0582 1.83551,0.0804 l 0.089,0.089 0.0284,0.30113 -0.0615,1.73564 c -0.038,1.0727 -0.25239,4.28648 -0.41168,7.1449 l -0.28961,5.19713 -2.25915,0.0629 -0.11382,0.0964 c -0.13815,0.0862 -0.7684,0.0308 -0.95456,-0.0675 l -2.35929,-0.0461 c 0.0945,-4.74918 0.58918,-9.80858 0.63796,-13.91223 l 0.006,-0.56231 0.36818,-0.0169 c 0.2025,-0.009 0.49643,-0.0119 0.65318,-0.006 l 0.285,0.0111 0.39396,-0.16765 -0.40828,-0.52644 -4.15881,2e-5 c 0.0294,0.19358 0.0215,0.0786 0.0186,0.2788 l -0.17924,0.0332 -0.17923,-0.0123 c 0.005,-0.22248 0.0148,-0.0768 0.0148,-0.35323 -0.21749,0.0225 -0.40593,-0.003 -0.61698,0.0372 l 0.0152,0.17936 0,0.11875 0.10294,0.17425 0.10293,0.17426 0.12207,0.006 c 0.0671,0.003 0.53734,0.0156 1.0449,0.0278 0.50756,0.0122 0.93792,0.0373 0.95635,0.0558 l 0.0335,0.0335 -0.58692,14.47098 -2.30294,0.0442 c -0.0875,0.16351 -0.45745,0.16722 -0.705,-0.0344 l -2.48901,-0.0954 c 0.21671,-4.89861 0.36092,-9.94993 0.50234,-14.147 l 0.009,-0.26892 0.24,-0.0445 c 0.132,-0.0245 0.3615,-0.0428 0.51,-0.0408 0.1485,0.002 0.30557,10e-4 0.34904,-10e-4 l 0.079,-0.005 -0.0399,-0.135 -0.0399,-0.135 -0.18711,-0.18 -0.18711,-0.18 -0.33081,0.008 -0.33082,0.008 -0.10304,-0.1188 c -0.0567,-0.0654 -0.11329,-0.14956 -0.12582,-0.18716 l -0.0228,-0.0684 -0.19658,0.2239 -0.19659,0.2239 -0.18078,0 -0.18078,0 0.0401,0.135 c 0.0221,0.0743 0.0554,0.23353 0.0741,0.35397 l 0.034,0.21897 -0.16351,0.10713 -0.1635,0.10713 0.0317,0.23629 0.0317,0.23628 -0.0317,0.0826 -0.0317,0.0826 -0.11358,0 -0.11358,0 0,0.14788 0,0.14789 -0.105,0.0552 -0.105,0.0553 -0.39,-0.0108 -0.39,-0.0108 -0.037,-0.3573 c -0.0204,-0.19651 -0.0244,-0.41721 -0.009,-0.49044 l 0.0281,-0.13314 -0.1323,-0.21407 -0.1323,-0.21407 0.039,-0.20779 0.039,-0.20778 0.12728,0 0.12728,0 -0.0313,-0.0313 c -0.0172,-0.0172 -0.21328,-0.0532 -0.43573,-0.08 l -0.40447,-0.0487 -0.0307,0.08 -0.0307,0.08 -0.34158,0 -0.34158,0 -0.057,-0.053 -0.057,-0.0529 -1.72348,-0.0298 -1.72347,-0.0298 -0.0864,0.0677 -0.0865,0.0677 -0.0205,0.285 c -0.0113,0.15675 -0.01,0.285 0.003,0.285 0.0131,0 0.0562,-0.0442 0.0957,-0.0983 l 0.0718,-0.0983 0.1715,0.0572 0.1715,0.0572 0.0427,0.15986 c 0.0476,0.17808 0.15166,0.2993 0.30752,0.35831 l 0.10373,0.0393 0.0162,0.6642 -0.0267,0.86776 0.0651,0.11308 0.11054,0.0146 0.025,-0.11587 c 0.0157,-0.54294 -0.009,-1.1412 -0.0696,-1.26294 l 0.0224,-0.14735 c 0.0328,-0.14772 0.25314,-0.10911 0.24136,-0.0253 l 1.32875,1.93957 0.13858,0.0339 -0.0107,0.14501 -0.0562,0.15259 0.0479,0.0402 0.28281,-0.0128 0.006,0.15495 0.006,0.15493 0.2125,-0.0345 0.21251,-0.0345 0.071,-0.0971 0.071,-0.0971 0.19922,-0.009 0.19922,-0.009 0.0193,0.20135 0.0193,0.20136 c 0.0159,0.006 -0.0511,0.0809 -0.0412,0.17054 l 0.13989,0.54585 0.11591,-0.0194 0.025,-0.11786 0.63719,0.0101 0.0557,0.23202 0.0329,0.12597 0.083,0 0.083,0 0,-0.06 0,-0.06 0.21,0 0.21,0 0,0.33 0,0.33 -0.2025,0 -0.2025,0 -0.0445,-0.195 -0.0445,-0.195 -0.061,0.19278 -0.061,0.19278 -0.51696,0.0172 -0.51695,0.0172 -0.0182,0.315 -0.0181,0.315 -0.2338,0 -0.2338,0 -0.10402,-0.33 -0.10403,-0.33 -0.19262,0 -0.19262,0 -0.0364,0.0949 c -0.02,0.0522 -0.0364,0.19093 -0.0364,0.30828 l 0,0.21337 -0.465,0.0348 -0.49714,-0.0295 c -0.068,-0.21978 0.0306,-0.66263 -0.0703,-0.71044 -0.0835,-0.0283 -0.25456,-0.11474 -0.24955,-0.18329 l 0.0114,-0.15624 0.0275,-0.10513 -0.20822,-0.12656 -0.0538,-0.0333 -0.0538,-0.0333 -1.87426,0.005 -1.87426,0.005 -0.0848,0.18049 c -0.0295,0.0627 -0.32494,0.17562 -0.38269,0.19586 l -0.105,0.0368 0,0.11454 0,0.11454 -0.16071,0.0242 c -0.0412,0.031 -0.11602,-0.0629 -0.19235,-0.0419 l -0.50306,0.3624 -0.0608,0.13326 -0.007,0.18684 -0.26973,0.0166 -0.21616,0.0702 -0.048,0.0815 -0.048,0.0815 c -0.0693,0.14237 -0.28373,0.14628 -0.38403,-0.004 l -0.0193,-0.1547 c -0.0781,-0.014 -0.18184,-0.0939 -0.0836,-0.19757 0.0687,-0.12734 0.14408,-0.0182 0.20357,-0.046 l 0.15,-0.0888 0.23357,-0.0106 0.51214,-0.37484 0.75424,-0.55637 -0.0407,-0.1255 c -0.10793,-0.007 -0.58164,-0.0108 -0.873,0.0102 -0.002,-0.10846 -0.0187,-0.20341 -0.0484,-0.25629 l -0.165,-0.0171 c -0.0834,0.2949 -0.30381,0.50706 -0.64353,0.54605 0.0628,0.10512 0.1758,0.20676 0.0674,0.31676 -0.2312,0.16431 -0.59752,0.2589 -0.91206,0.0216 -0.0692,-0.13707 -0.0801,-0.25825 0.0411,-0.26755 l -0.0553,-0.0854 c -0.16415,-0.0473 -0.43906,-0.3739 -0.4712,-0.51 l -0.09,0 -0.09,0 0,0.0579 c 0,0.0318 -0.0607,0.0908 -0.135,0.13104 l -0.135,0.0732 -1.32,-0.012 -1.32,-0.012 -0.11143,-0.0847 -0.45428,-0.0526 -0.075,-0.13817 0.0107,-0.62032 c 0.14927,-0.009 0.28994,-0.0141 0.39379,0.0425 l 0.0726,-0.0537 -0.11633,-0.17551 c -0.0558,-0.0841 -0.064,-0.193 -0.0345,-0.31479 l 0.039,-0.16072 -0.19978,0 -0.19978,0 -0.0375,-0.1875 c -0.0678,-0.14192 -0.0848,-0.14119 -0.0375,-0.29546 l 0.13877,-0.0354 c -0.0301,-0.12226 -0.0212,-0.18555 -0.0514,-0.27984 l 0.16339,-0.0409 0.0431,-0.18795 0.13949,-0.11295 0.17336,0 0.17335,0 0,0.18 0,0.36214 0.11143,-0.13635 c 0.90647,-0.0263 1.70578,-0.004 2.61722,0.0233 0.0505,0.0419 0.1009,0.0837 0.15135,0.12561 l 0,-0.15735 0,-0.15735 c 0.04,0 0.08,0 0.12,0 l 0,-0.26646 0,-0.26645 -0.007,-0.24504 -0.13547,0.11925 -0.0167,0.1631 -0.50953,0.002 -0.1445,0.16806 -0.28379,-0.0462 -0.0912,-0.20109 -0.0484,-0.2761 -0.14494,-0.0278 -0.0271,0.33643 -0.35373,0 -0.35374,0 -0.11664,-0.13449 -0.11664,-0.13449 0.0461,-0.18051 c 0.0254,-0.0993 -0.0795,-0.24635 -0.0436,-0.38194 l 0.11391,-0.21214 0.18531,-0.1046 0.21746,-0.008 -0.10251,-0.12098 -0.12393,-0.0245 -0.094,-0.10426 -0.21185,-0.0828 -0.14422,-0.16094 -0.28349,-0.0431 -2.82,0.004 c -1.551,0.002 -2.9955,-10e-4 -3.21,-0.008 l -0.39,-0.0122 c -0.0262,0.21435 -0.0219,0.40273 -0.16442,0.56783 -0.0817,0.13119 -0.14462,0.12098 -0.28014,0.12098 l -0.035,0.225 c -0.0193,0.12375 -0.0686,0.29231 -0.10978,0.37457 l -0.0748,0.14958 -0.10293,0.0198 -0.0965,-0.27639 -0.18643,0.0512 -0.32143,0.0106 c -0.0931,0.003 -0.0923,-0.096 -0.15263,-0.16079 l 0.13665,-0.19283 -0.0117,-0.29537 c -0.0581,-0.16047 -0.0537,-0.39604 -0.0225,-0.55681 l 0.0963,-0.13286 -0.39327,0 -0.17143,0.12429 -0.09,0 -0.0686,-0.12858 -0.0536,-0.15214 -0.15,-0.45214 c -0.0642,0.48947 -0.13122,0.41143 -0.20358,0.41143 l -0.20144,0.0214 c -0.20909,0.27349 -0.19137,0.23684 -0.30641,0.3501 0.24078,0.0232 0.49908,-0.0587 0.71941,0.0138 l 0.0542,0.2028 0,0.13164 c 0.32228,3.74607 0.70716,8.48905 1.07421,12.20586 l -2.05136,-0.006 c 0.14509,0.36865 -0.93857,0.42456 -0.93857,0.0512 l -0.82928,0.009 c -0.25575,-10e-4 -0.627,-0.0153 -0.825,-0.0314 l -2.04771,-12.25991 -0.0356,-0.17808 2.31927,-0.0671 -0.0388,-0.54072 -4.38496,0.0845 c -0.0187,0.0716 -0.0375,0.14325 -0.0562,0.21487 -0.0353,0 -0.0707,0 -0.106,0 l 0,0.15 0.0321,0.26786 0.73739,0.06 1.8597,12.30777 -0.95543,-0.0178 -1.12685,-0.0178 c -0.0763,0.24449 -0.55822,0.41347 -0.82253,0.0193 l -2.19591,-0.005 -2.13727,-12.48228 -0.0486,-0.24452 1.82592,0.14701 -0.0272,-0.38143 0.25891,-0.0128 -0.0633,-0.70042 0.1617,-0.0361 -0.003,-0.16768 c 0.0145,-0.14036 0.0635,-0.25746 0.12563,-0.38068 l -0.0857,-0.10585 -0.004,-0.26543 -0.27228,-0.0619 -0.0991,-0.32328 -0.0291,-0.27557 0,-0.14191 -0.13929,-0.0669 -1.40678,-0.15296 -2.79675,-15.40736 1.94602,0.25589 c 0.19478,-0.28139 0.75096,-0.21056 0.94647,0.0265 l 1.96507,0.29674 2.1665,15.25662 -2.10331,-0.2745 0.0756,0.62254 c 0.29176,0.0111 0.60437,0.0122 0.88288,0.0122 0.023,0.06 0.046,0.12 0.0691,0.18 l 1.86138,0 3.06239,-0.002 0,-0.25933 0,-0.0986 0.06,0 0.06,0 0,-0.12 0,-0.12 0.0795,0 0.0795,0 0.12601,0.135 0.12601,0.135 0.041,0.165 0.041,0.165 0.14992,0 0.14991,0 -0.0364,-0.0949 c -0.02,-0.0522 -0.0364,-0.17428 -0.0364,-0.27129 l -0.11786,-0.54066 -1.92214,-0.29737 -6e-4,-0.40289 -6e-4,-0.40289 -1.97758,-14.4809 2.13859,0.24402 c 0.33008,-0.28389 0.70507,-0.14001 0.89423,0.097 0.14924,0.22025 1.47983,0.38718 1.75286,0.4856 0.3762,5.02213 1.26681,10.10851 1.65712,15.1301 l -1.70852,-0.26218 c 0.061,0.24537 0.069,0.49374 0.0891,0.74416 l 2.42536,-0.0124 0.0927,0.23505 0.17846,-0.0232 c -0.11786,-0.10615 0.0311,-0.0317 -0.0432,-0.29383 l 0.20325,-0.0677 -0.0304,-0.20309 -0.16965,-0.0638 -0.0943,-0.31639 -0.0407,-0.33783 0.23005,-0.26266 c 0.13414,-0.15316 0.0848,-0.11748 0.0907,-0.24123 l -0.17152,-0.0214 -0.0178,-0.39643 0.37857,-0.3 0.35365,-0.0109 c 0.0321,-0.12145 0.10599,-0.16641 0.20565,-0.14137 l 0.0528,0.20357 0.22426,0.0428 0.0148,0.26747 c 0.10188,0.24178 -0.16317,0.16551 -0.1489,0.20269 l 0.006,0.17504 0.20938,0.12857 0.15581,0.10714 0.0674,0.23143 -0.21823,0.32322 -0.0129,0.75267 0.93857,-0.0251 1.20643,-0.0358 0.16902,-0.70972 0.14759,-0.45256 0.0816,-0.59591 0.16735,-0.38164 0.0589,-0.74908 0.16566,-0.31182 1.25708,-0.009 m 30.22076,6.52824 c -0.0365,-0.11343 -0.18719,-0.0516 -0.29433,-0.0377 l -0.22124,0.008 c -0.14783,-0.0519 -0.16037,0.01 -0.32328,-0.0272 l -0.006,0.43146 -0.57453,13.30267 c 0.38719,-0.0986 0.4991,-0.0264 0.63,0.0801 z m -7.67,13.66011 0.52133,-13.90285 -0.39746,0 -0.39747,0 -0.44501,13.86857 c 0.21428,-0.13369 0.58155,-0.0672 0.71861,0.0343 z m -29.22721,-2.74285 -1.15861,-9.6851 -0.0364,-0.0949 -0.32358,0 -0.32359,0 0.002,0.135 1.26781,9.825 c 0.21852,-0.0617 0.38719,-0.10617 0.60047,0.03 l -0.0276,-0.21 z m -7.8178,-9.09189 -0.17355,0.24866 -0.38412,-0.009 1.44683,9.03064 c 0.14276,-0.11772 0.39732,-0.12076 0.54277,10e-4 z m 29.08725,0.54411 0.0884,-0.373 -0.73837,-0.97991 -0.3738,-0.63243 0.0211,0.50535 c -0.021,0.098 0.042,0.51264 0.0381,0.65289 l -0.007,0.255 0.05,0 -0.003,0.24243 -0.24243,0.0523 0.0227,0.3023 0.52052,0.0584 c 0.0321,0.0321 -0.0143,0.0801 0.16529,0.14367 l 0.80392,0.055 0.07,-0.0992 -0.27097,-0.0917 z m -3.8689,-1.13484 c 0.0118,-0.0118 0.0138,-0.31528 0.004,-0.67437 l -0.0171,-0.65289 -0.0724,0.16212 -0.0724,0.16213 -0.1796,0.0929 -0.1796,0.0929 -0.21891,0 -0.2189,0 -0.17408,-0.18634 -0.17407,-0.18635 0,-0.0785 0,-0.0785 -0.39012,-0.0201 -0.39013,-0.0201 1.2e-4,0.0743 c 6e-5,0.0409 -0.0464,0.12862 -0.10321,0.195 l -0.10333,0.12068 -0.10666,0 -0.10667,0 0,0.17646 0,0.17646 -0.06,0.0371 -0.06,0.0371 0,0.13514 0,0.13514 0.12234,0.13132 0.12234,0.13131 0.10266,10e-4 c 0.0565,6e-4 0.488,0.0103 0.95898,0.0213 l 0.85631,0.0201 0.0433,0.0433 0.0433,0.0433 0.17604,-0.0352 c 0.0968,-0.0194 0.18571,-0.0449 0.19753,-0.0567 z m 18.06297,-1.57848 c -0.0574,-0.015 -1.3624,-0.0307 -1.43703,-0.0163 l 0.0461,0.117 1.57341,10e-4 0.043,-0.0746 -0.22552,-0.0273 z m -23.93302,-0.13299 0.0827,-0.0524 -0.0412,-0.0667 -0.0412,-0.0667 -0.14646,0 c -0.15963,0 -0.2601,-0.0375 -0.20646,0.10223 l 0.13284,0.13777 0.0686,-9e-4 c 0.0377,-6e-4 0.10579,-0.0245 0.15126,-0.0533 z m 23.72346,-0.16515 c -0.0406,-0.0164 -0.12162,-0.0174 -0.18,-0.002 l -0.10614,0.0277 0.18,0.002 0.18,0.002 z m -10.99624,-1.01668 c 5e-5,-0.003 -0.0296,-0.0911 -0.0658,-0.195 l -0.0659,-0.18896 -0.17675,0 -0.17675,0 0.16725,0.40103 c 0.17478,-0.006 0.31783,-0.0137 0.31789,-0.0171 z m -12.99377,-1.67396 c 0.0177,-0.066 0.0326,-0.33935 0.0331,-0.60744 l 9e-4,-0.48744 0.465,-0.014 c 0.25575,-0.008 0.5325,-0.0137 0.615,-0.0133 0.0825,6e-4 0.23775,-0.0115 0.345,-0.0263 l 0.195,-0.027 0,-0.11728 0,-0.11728 -0.06,0 -0.06,0 0,-0.09 0,-0.36857 -2.63786,-0.0857 -0.12214,0.47374 -0.11786,0.0374 c -0.0365,0.0116 -0.0904,0.79214 -0.13549,0.8372 l -0.0856,0.55107 0.33236,0.15707 c 0.0531,0.01 0.34502,0.0178 0.64859,0.0178 l 0.55196,0 0.0322,-0.12 z m 6.66781,0.0609 -0.19879,-1.73912 -0.55515,0.0282 -0.48,0 -0.48,0 0,0.0927 0,0.0927 -0.21296,-0.04 -0.21296,-0.0399 0.038,0.17223 c 0.0209,0.0947 0.0475,0.20364 0.0591,0.24204 l 0.006,0.16072 0.33479,-0.0933 0.15296,0.14911 0.32242,-0.16075 0.0415,1.13013 z m 11.48392,-0.32209 0.0118,-0.13558 c 0.0969,-0.10522 0.41647,-0.20886 0.54763,-0.004 l -0.0146,0.14182 0.0979,0.002 c 0.21926,-5.5974 0.35779,-11.19953 0.5625,-15.87079 l -0.21892,0.097 -0.35598,-10e-4 c -0.20297,-6e-4 -0.24051,-0.0618 -0.24344,-0.0572 -0.22643,5.36098 -0.40923,10.24052 -0.61612,15.69825 l 0.002,0.10715 c 6e-4,0.0306 0.22715,0.051 0.22715,0.0217 z m -21.21761,-0.72882 0.24311,-1.15929 -0.1282,0.0364 c 0,0 -0.19772,1.18136 -0.2172,1.36286 l -0.0997,0.705 0.11338,-0.0107 z m 29.25111,0.24 0.0319,-0.315 0.8167,-14.90911 0,-0.25589 -0.41523,0 -0.41522,0 -1.06192,15.73637 0.11751,0.0136 0.21988,-0.20148 0.3411,-0.11057 c 0.44186,0.1291 0.11189,0.0421 0.36524,0.0421 z m -48.77233,-14.80698 c -0.25514,0.20023 -0.45997,0.0667 -0.637,-0.008 l 2.2474,14.63025 0.70616,0.0472 z m 9.64459,14.62411 c -0.0154,-0.0903 -0.15895,-0.96238 -0.22722,-1.51879 l -1.63037,-13.26822 c -0.24211,0.0508 -0.4418,0.0684 -0.58617,-0.096 l 1.5888,13.44586 c 0.0468,0.3465 0.17746,1.14043 0.19877,1.34524 z m 16.96849,-0.21403 0.14789,-0.0969 0,-0.10819 c 0,-0.0595 -0.0164,-0.1509 -0.0364,-0.2031 l -0.0364,-0.0949 -0.29358,0 -0.29358,0 0,0.26601 0,0.26602 0.165,0.025 c 0.0908,0.0137 0.1727,0.029 0.18211,0.034 0.009,0.005 0.0837,-0.0346 0.165,-0.0879 z m 6.47805,1.16441 -0.51119,-2.97301 -0.16199,0.0208 0.51818,2.96293 z m -15.0601,-2.21537 -0.072,0.58414 c -0.0463,0.37544 -0.11031,0.65159 -0.15506,0.89599 l -0.12317,0.67273 0.1805,0.0129 c 0,0 0.1228,-0.98422 0.15663,-1.19406 l 0.1022,-0.54595 0.0795,-0.44505 z m 12.97633,2.1851 -0.23011,-1.82949 -0.10914,-0.0139 c 0.0543,0.85965 0.0964,1.01334 0.21757,1.86563 z"
       id="path5663"
       inkscape:connector-curvature="0"
       sodipodi:nodetypes="cccccccccccccccccccccccccccccccccccccccccccccccccccssccccccccccccccccccccccccccccccccccccccccccccsccccccccssscssscscccccccccccccccccccccccsscccccccccccccccccccccccscccccccccccccccccccccccccsscccccccccccccccssccccccccccccccccccccssscccsccccccccccccccccccccccccccccccccccccccccccccccccccccccccccsccccscccccccscccccccccccccccccccccccccccccccccsscccccccccssccccccccccccccccccccccccccccccccccccsscccccccccsccccssccccscccccccccccccccccccccccccccccccccccccccccccccccccccccccccccccccccccccccccccccccssccccccccccccccscccccsccccccccccccccccccccccccccccccccccccccccccccccccccccccccccccsccccccccccccsccccccccccccccccccccccccccsscccccccccccccccccscccccsccccsccccccccscccscccccccccscccsccccccccccccsccccccccccccccsccsccccsccccccccccccccccccccccccccccsscccccccccccccccsccsccccccccc" />
  </g>
</svg>
